<svg xmlns="http://www.w3.org/2000/svg" viewBox="0 0 100 120">
  <!-- Wrapper -->
  <path d="M28,62 L34,108 L66,108 L72,62 Z" fill="#9370DB"/>
  <path d="M28,62 L72,62" stroke="#7B5EA7" stroke-width="1.5"/>
  <path d="M33,62 L37,108" stroke="#7B5EA7" stroke-width="1" opacity="0.5"/>
  <path d="M43,62 L45,108" stroke="#7B5EA7" stroke-width="1" opacity="0.5"/>
  <path d="M53,62 L53,108" stroke="#7B5EA7" stroke-width="1" opacity="0.5"/>
  <path d="M63,62 L61,108" stroke="#7B5EA7" stroke-width="1" opacity="0.5"/>
  <path d="M68,62 L64,108" stroke="#7B5EA7" stroke-width="1" opacity="0.5"/>
  <!-- Frosting -->
  <ellipse cx="50" cy="60" rx="28" ry="8" fill="#D8BFD8"/>
  <circle cx="34" cy="52" r="14" fill="#BA55D3"/>
  <circle cx="50" cy="46" r="16" fill="#D8BFD8"/>
  <circle cx="66" cy="52" r="14" fill="#BA55D3"/>
  <circle cx="42" cy="44" r="12" fill="#DDA0DD"/>
  <circle cx="58" cy="44" r="12" fill="#DDA0DD"/>
  <circle cx="50" cy="36" r="11" fill="#D8BFD8"/>
  <!-- Star on top -->
  <polygon points="50,12 53,22 63,22 55,28 58,38 50,32 42,38 45,28 37,22 47,22" fill="#FFD700"/>
  <polygon points="50,15 52,22 59,22 54,27 56,35 50,30 44,35 46,27 41,22 48,22" fill="#FFEC8B"/>
  <!-- Sprinkles -->
  <rect x="37" y="46" width="6" height="2.5" rx="1.2" fill="#FF69B4" transform="rotate(35 40 47)"/>
  <rect x="56" y="48" width="6" height="2.5" rx="1.2" fill="#00CED1" transform="rotate(-20 59 49)"/>
  <rect x="44" y="53" width="6" height="2.5" rx="1.2" fill="#FFD700" transform="rotate(45 47 54)"/>
  <rect x="60" y="55" width="6" height="2.5" rx="1.2" fill="#32CD32" transform="rotate(-35 63 56)"/>
  <rect x="34" y="55" width="6" height="2.5" rx="1.2" fill="#FF6347" transform="rotate(20 37 56)"/>
  <rect x="50" y="40" width="6" height="2.5" rx="1.2" fill="#00BFFF" transform="rotate(-15 53 41)"/>
  <rect x="40" y="38" width="5" height="2" rx="1" fill="#FFD700" transform="rotate(45 42 39)"/>
  <rect x="58" y="38" width="5" height="2" rx="1" fill="#FF69B4" transform="rotate(-30 60 39)"/>
</svg>
